<svg width="48" height="48" xmlns="http://www.w3.org/2000/svg" xmlns:xlink="http://www.w3.org/1999/xlink"><defs><filter x="-5.5%" y="-2.7%" width="111%" height="105.4%" filterUnits="objectBoundingBox" id="b"><feGaussianBlur stdDeviation=".5" in="SourceAlpha" result="shadowBlurInner1"/><feOffset in="shadowBlurInner1" result="shadowOffsetInner1"/><feComposite in="shadowOffsetInner1" in2="SourceAlpha" operator="arithmetic" k2="-1" k3="1" result="shadowInnerInner1"/><feColorMatrix values="0 0 0 0 1 0 0 0 0 1 0 0 0 0 1 0 0 0 0.5 0" in="shadowInnerInner1"/></filter><filter x="-3%" y="-3%" width="106%" height="105.9%" filterUnits="objectBoundingBox" id="d"><feGaussianBlur stdDeviation="1" in="SourceAlpha" result="shadowBlurInner1"/><feOffset in="shadowBlurInner1" result="shadowOffsetInner1"/><feComposite in="shadowOffsetInner1" in2="SourceAlpha" operator="arithmetic" k2="-1" k3="1" result="shadowInnerInner1"/><feColorMatrix values="0 0 0 0 1 0 0 0 0 1 0 0 0 0 1 0 0 0 1 0" in="shadowInnerInner1"/></filter><path id="a" d="m20.835 15.365 9.127-4.146v18.658h-9.127z"/><path d="m18.659 0-.001 31.539 14.513.001v2.204H0V31.54l2.073-.001V4.146L18.66 0zM7.839 12.819l-2.034.65-.001 18.07h2.034v-18.72zm7.088-.946-2.034.566v19.1h2.033V11.873z" id="c"/><linearGradient x1="49.734%" y1="0%" x2="51.443%" y2="100%" id="e"><stop stop-color="#73BBFF" offset="0%"/><stop stop-color="#4385FF" offset="100%"/></linearGradient></defs><g fill="none" fill-rule="evenodd"><g transform="matrix(-1 0 0 1 58.211 7)"><use fill-opacity=".201" fill="#E4EEFF" xlink:href="#a"/><use fill="#000" filter="url(#b)" xlink:href="#a"/></g><g transform="translate(7.415 7)"><use fill-opacity=".6" fill="#D4E3FF" xlink:href="#c"/><use fill="#000" filter="url(#d)" xlink:href="#c"/></g><path fill="url(#e)" d="M26.398 18.104v11.773h-2V18.104z" transform="translate(7.415 7)"/></g></svg>