<svg width="48" height="48" xmlns="http://www.w3.org/2000/svg" xmlns:xlink="http://www.w3.org/1999/xlink"><defs><linearGradient x1="40.793%" y1="42.34%" x2="100%" y2="57.66%" id="a"><stop stop-color="#73BBFF" offset="0%"/><stop stop-color="#4385FF" offset="100%"/></linearGradient><filter x="-2.7%" y="-3.1%" width="105.5%" height="106.3%" filterUnits="objectBoundingBox" id="c"><feGaussianBlur stdDeviation="1" in="SourceAlpha" result="shadowBlurInner1"/><feOffset in="shadowBlurInner1" result="shadowOffsetInner1"/><feComposite in="shadowOffsetInner1" in2="SourceAlpha" operator="arithmetic" k2="-1" k3="1" result="shadowInnerInner1"/><feColorMatrix values="0 0 0 0 1 0 0 0 0 1 0 0 0 0 1 0 0 0 1 0" in="shadowInnerInner1"/></filter><path d="m.986.44 30.747 30.373-.986.995-11.226-11.091H5.809a5.18 5.18 0 0 1-5.175-4.96l-.005-.22a5.18 5.18 0 0 1 4.961-5.175l.22-.004h1.294c0-.598.052-1.186.15-1.759L0 1.434.986.44zm26.123 6.14a7.252 7.252 0 1 1 2.508 14.135l-.24.003-5.868-.001L8.263 5.598A10.357 10.357 0 0 1 15.265.237l.276-.056a10.36 10.36 0 0 1 11.568 6.398z" id="b"/></defs><g fill="none" fill-rule="evenodd"><path d="M30.758 31.849v1.4H6.729v-1.4h24.029zm-2.04-4.003 1.42 1.4H6.728v-1.4h21.99zm-4.057-4.002 1.42 1.4H6.728v-1.4H24.66zm6.097 0v1.4h-2.685l-1.419-1.4h4.104z" fill="url(#a)" transform="translate(5.37 6.803)"/><g transform="translate(5.37 6.803)"><use fill-opacity=".6" fill="#D4E3FF" xlink:href="#b"/><use fill="#000" filter="url(#c)" xlink:href="#b"/></g></g></svg>