<svg width="48" height="48" xmlns="http://www.w3.org/2000/svg" xmlns:xlink="http://www.w3.org/1999/xlink"><defs><filter x="-2.9%" y="-5%" width="105.7%" height="110%" filterUnits="objectBoundingBox" id="b"><feGaussianBlur stdDeviation="1" in="SourceAlpha" result="shadowBlurInner1"/><feOffset in="shadowBlurInner1" result="shadowOffsetInner1"/><feComposite in="shadowOffsetInner1" in2="SourceAlpha" operator="arithmetic" k2="-1" k3="1" result="shadowInnerInner1"/><feColorMatrix values="0 0 0 0 1 0 0 0 0 1 0 0 0 0 1 0 0 0 1 0" in="shadowInnerInner1"/></filter><filter x="-1.4%" y="-1.5%" width="102.7%" height="103%" filterUnits="objectBoundingBox" id="d"><feGaussianBlur stdDeviation=".5" in="SourceAlpha" result="shadowBlurInner1"/><feOffset in="shadowBlurInner1" result="shadowOffsetInner1"/><feComposite in="shadowOffsetInner1" in2="SourceAlpha" operator="arithmetic" k2="-1" k3="1" result="shadowInnerInner1"/><feColorMatrix values="0 0 0 0 1 0 0 0 0 1 0 0 0 0 1 0 0 0 0.5 0" in="shadowInnerInner1"/></filter><path d="m18.747 18.974 1.322 9.319h-9.8l-1.322-9.319h9.8zm11 0 1.322 9.319h-9.6l-1.322-9.319h9.6zm11.2 0 1.322 9.319h-9.8l-1.322-9.319h9.8zm-23.7-10.583 1.32 9.317h-9.8L7.448 8.39h9.8zm11 0 1.32 9.317h-9.6l-1.32-9.317h9.6zm11.2 0 1.32 9.317h-9.8l-1.32-9.317h9.8z" id="a"/><path d="m1.4 0 2.758 19.454h32.064l.18 1.266h-.029v12.417H3.03L3.029 20.72h-.09L0 0h1.4z" id="c"/><linearGradient x1="44.98%" y1="0%" x2="77.261%" y2="100%" id="e"><stop stop-color="#73BBFF" offset="0%"/><stop stop-color="#4385FF" offset="100%"/></linearGradient></defs><g fill="none" fill-rule="evenodd"><use fill-opacity=".6" fill="#D4E3FF" xlink:href="#a"/><use fill="#000" filter="url(#b)" xlink:href="#a"/><g transform="translate(4.598 10.348)"><use fill-opacity=".201" fill="#E4EEFF" xlink:href="#c"/><use fill="#000" filter="url(#d)" xlink:href="#c"/></g><path fill="url(#e)" d="M19.24 20.427h4.597l-3.163 4.102h3.97l-8.859 7.896 2.766-5.503h-2.766z" transform="translate(4.598 10.348)"/></g></svg>