<svg width="48" height="48" xmlns="http://www.w3.org/2000/svg" xmlns:xlink="http://www.w3.org/1999/xlink"><defs><linearGradient x1="44.822%" y1="0%" x2="78.121%" y2="100%" id="c"><stop stop-color="#73BBFF" offset="0%"/><stop stop-color="#4385FF" offset="100%"/></linearGradient><filter x="-2.5%" y="-2.8%" width="105%" height="105.6%" filterUnits="objectBoundingBox" id="b"><feGaussianBlur stdDeviation="1" in="SourceAlpha" result="shadowBlurInner1"/><feOffset in="shadowBlurInner1" result="shadowOffsetInner1"/><feComposite in="shadowOffsetInner1" in2="SourceAlpha" operator="arithmetic" k2="-1" k3="1" result="shadowInnerInner1"/><feColorMatrix values="0 0 0 0 1 0 0 0 0 1 0 0 0 0 1 0 0 0 1 0" in="shadowInnerInner1"/></filter><path d="M24.4 6v4H26v1.4h-1.6v25.2H26V38h-1.6v4H23v-4H4V10h19V6h1.4zM32 36.6V38h-4v-1.4h4zm6 0V38h-4v-1.4h4zm6.4-2.6v4H40v-1.4h3V34h1.4zm0-6v4H43v-4h1.4zM22 20l-5 4 5 4v-8zm22.4 2v4H43v-4h1.4zm0-6v4H43v-4h1.4zm0-6v4H43v-2.6h-3V10h4.4zM32 10v1.4h-4V10h4zm6 0v1.4h-4V10h4z" id="a"/></defs><g fill="none" fill-rule="evenodd"><use fill-opacity=".6" fill="#D4E3FF" xlink:href="#a"/><use fill="#000" filter="url(#b)" xlink:href="#a"/><path d="M29.09 33.999 26 34v-3.13h3.58a44.594 44.594 0 0 0-.49 3.129zM41 25.612V34h-2.396A34.72 34.72 0 0 1 41 25.611zm0-7.997-.001 4.75A36.12 36.12 0 0 0 37.189 34l-2.474-.001A38.595 38.595 0 0 1 41 17.615zm-2.562-3.617L41 14v1.206A40.014 40.014 0 0 0 33.302 34h-2.8a42.768 42.768 0 0 1 7.936-20.001zM29.875 29.47H26v-2.769h4.6c-.27.912-.513 1.835-.725 2.769zm1.166-4.169H26v-2.77h6.069a44.072 44.072 0 0 0-1.028 2.77zm1.63-4.17H26v-2.769h8.037a44.221 44.221 0 0 0-1.367 2.77zm4.047-7.133c-.67.96-1.302 1.95-1.896 2.964H26V14l10.718-.002z" fill="url(#c)"/></g></svg>