<svg width="48" height="48" xmlns="http://www.w3.org/2000/svg" xmlns:xlink="http://www.w3.org/1999/xlink"><defs><filter x="-16.7%" y="-16.7%" width="133.4%" height="133.4%" filterUnits="objectBoundingBox" id="c"><feGaussianBlur stdDeviation="1" in="SourceAlpha" result="shadowBlurInner1"/><feOffset in="shadowBlurInner1" result="shadowOffsetInner1"/><feComposite in="shadowOffsetInner1" in2="SourceAlpha" operator="arithmetic" k2="-1" k3="1" result="shadowInnerInner1"/><feColorMatrix values="0 0 0 0 1 0 0 0 0 1 0 0 0 0 1 0 0 0 1 0" in="shadowInnerInner1"/></filter><filter x="-16.8%" y="-16.7%" width="133.5%" height="133.3%" filterUnits="objectBoundingBox" id="e"><feGaussianBlur stdDeviation="1" in="SourceAlpha" result="shadowBlurInner1"/><feOffset in="shadowBlurInner1" result="shadowOffsetInner1"/><feComposite in="shadowOffsetInner1" in2="SourceAlpha" operator="arithmetic" k2="-1" k3="1" result="shadowInnerInner1"/><feColorMatrix values="0 0 0 0 1 0 0 0 0 1 0 0 0 0 1 0 0 0 1 0" in="shadowInnerInner1"/></filter><filter x="-3%" y="-2.9%" width="106%" height="105.9%" filterUnits="objectBoundingBox" id="h"><feGaussianBlur stdDeviation="1" in="SourceAlpha" result="shadowBlurInner1"/><feOffset in="shadowBlurInner1" result="shadowOffsetInner1"/><feComposite in="shadowOffsetInner1" in2="SourceAlpha" operator="arithmetic" k2="-1" k3="1" result="shadowInnerInner1"/><feColorMatrix values="0 0 0 0 1 0 0 0 0 1 0 0 0 0 1 0 0 0 1 0" in="shadowInnerInner1"/></filter><filter x="-2.6%" y="-2.6%" width="105.2%" height="105.2%" filterUnits="objectBoundingBox" id="j"><feGaussianBlur stdDeviation=".5" in="SourceAlpha" result="shadowBlurInner1"/><feOffset in="shadowBlurInner1" result="shadowOffsetInner1"/><feComposite in="shadowOffsetInner1" in2="SourceAlpha" operator="arithmetic" k2="-1" k3="1" result="shadowInnerInner1"/><feColorMatrix values="0 0 0 0 1 0 0 0 0 1 0 0 0 0 1 0 0 0 0.5 0" in="shadowInnerInner1"/></filter><path id="b" d="m36.78 15.425 5.987-1.428-1.427 5.987z"/><path d="M33.323 16.999c0 9.28-7.287 16.824-16.341 16.998l-.32.003C7.46 34 0 26.389 0 17S7.46 0 16.662 0v6.142C10.699 6.142 5.866 11.003 5.866 17c0 5.997 4.833 10.858 10.796 10.858 5.962 0 10.796-4.861 10.796-10.858l-.001-.001h5.866z" id="g"/><path d="m11.251 17.05 5.076 9.573c-4.371-.151-7.998-3.25-8.976-7.383l3.9-2.19zm12.19-6.841a9.623 9.623 0 0 1 2.792 6.794c0 4.878-3.609 8.909-8.288 9.54l-5.414-10.21 10.91-6.124zm-6.78-2.831c2.087 0 4.018.671 5.59 1.81L7.115 17.687a9.82 9.82 0 0 1-.024-.683c0-5.316 4.285-9.625 9.57-9.625z" id="i"/><linearGradient x1="40.897%" y1="0%" x2="99.435%" y2="100%" id="a"><stop stop-color="#73BBFF" offset="0%"/><stop stop-color="#4385FF" offset="100%"/></linearGradient><linearGradient x1="41.156%" y1="0%" x2="98.033%" y2="100%" id="f"><stop stop-color="#73BBFF" offset="0%"/><stop stop-color="#4385FF" offset="100%"/></linearGradient><ellipse id="d" cx="39.773" cy="26" rx="2.983" ry="3"/></defs><g fill="none" fill-rule="evenodd"><path opacity=".1" d="M0 0h48v48H0z"/><path fill="url(#a)" d="M36.79 3h5.966v6H36.79z" transform="translate(2 7)"/><g transform="rotate(-45 49.223 18.077)"><use fill-opacity=".6" fill="#D4E3FF" xlink:href="#b"/><use fill="#000" filter="url(#c)" xlink:href="#b"/></g><g transform="translate(2 7)"><use fill-opacity=".6" fill="#D4E3FF" xlink:href="#d"/><use fill="#000" filter="url(#e)" xlink:href="#d"/></g><path d="M18.168.057C26.275.73 32.74 7.327 33.402 15.6H27.24c-.614-4.815-4.353-8.63-9.072-9.256V.057z" fill="url(#f)" transform="translate(2 7)"/><g transform="translate(2 7)"><use fill-opacity=".6" fill="#D4E3FF" xlink:href="#g"/><use fill="#000" filter="url(#h)" xlink:href="#g"/></g><g transform="translate(2 7)"><use fill-opacity=".201" fill="#E4EEFF" xlink:href="#i"/><use fill="#000" filter="url(#j)" xlink:href="#i"/></g></g></svg>