<svg width="48" height="48" xmlns="http://www.w3.org/2000/svg" xmlns:xlink="http://www.w3.org/1999/xlink"><defs><linearGradient x1="44.821%" y1="0%" x2="78.125%" y2="100%" id="c"><stop stop-color="#73BBFF" offset="0%"/><stop stop-color="#4385FF" offset="100%"/></linearGradient><filter x="-2.5%" y="-2.8%" width="105%" height="105.6%" filterUnits="objectBoundingBox" id="b"><feGaussianBlur stdDeviation="1" in="SourceAlpha" result="shadowBlurInner1"/><feOffset in="shadowBlurInner1" result="shadowOffsetInner1"/><feComposite in="shadowOffsetInner1" in2="SourceAlpha" operator="arithmetic" k2="-1" k3="1" result="shadowInnerInner1"/><feColorMatrix values="0 0 0 0 1 0 0 0 0 1 0 0 0 0 1 0 0 0 1 0" in="shadowInnerInner1"/></filter><path d="M24.4 6v4H26v1.4h-1.6v25.2H26V38h-1.6v4H23v-4H4V10h19V6h1.4zM32 36.6V38h-4v-1.4h4zm6 0V38h-4v-1.4h4zm6.4-2.6v4H40v-1.4h3V34h1.4zm0-6v4H43v-4h1.4zM22 20l-5 4 5 4v-8zm22.4 2v4H43v-4h1.4zm0-6v4H43v-4h1.4zm0-6v4H43v-2.6h-3V10h4.4zM32 10v1.4h-4V10h4zm6 0v1.4h-4V10h4z" id="a"/></defs><g fill="none" fill-rule="evenodd"><use fill-opacity=".6" fill="#D4E3FF" xlink:href="#a"/><use fill="#000" filter="url(#b)" xlink:href="#a"/><path d="M41 14v20H26V14h15zm-1.4 1.4H27.4v17.2h12.2V15.4z" fill="url(#c)"/></g></svg>