<svg width="48" height="48" xmlns="http://www.w3.org/2000/svg" xmlns:xlink="http://www.w3.org/1999/xlink"><defs><filter x="-5.6%" y="-3.1%" width="111.1%" height="106.2%" filterUnits="objectBoundingBox" id="b"><feGaussianBlur stdDeviation="1" in="SourceAlpha" result="shadowBlurInner1"/><feOffset in="shadowBlurInner1" result="shadowOffsetInner1"/><feComposite in="shadowOffsetInner1" in2="SourceAlpha" operator="arithmetic" k2="-1" k3="1" result="shadowInnerInner1"/><feColorMatrix values="0 0 0 0 1 0 0 0 0 1 0 0 0 0 1 0 0 0 1 0" in="shadowInnerInner1"/></filter><filter x="-2.5%" y="-3.1%" width="105%" height="106.3%" filterUnits="objectBoundingBox" id="d"><feGaussianBlur stdDeviation=".5" in="SourceAlpha" result="shadowBlurInner1"/><feOffset in="shadowBlurInner1" result="shadowOffsetInner1"/><feComposite in="shadowOffsetInner1" in2="SourceAlpha" operator="arithmetic" k2="-1" k3="1" result="shadowInnerInner1"/><feColorMatrix values="0 0 0 0 1 0 0 0 0 1 0 0 0 0 1 0 0 0 0.5 0" in="shadowInnerInner1"/></filter><filter x="-2.5%" y="-3.6%" width="105%" height="107.1%" filterUnits="objectBoundingBox" id="f"><feGaussianBlur stdDeviation=".5" in="SourceAlpha" result="shadowBlurInner1"/><feOffset in="shadowBlurInner1" result="shadowOffsetInner1"/><feComposite in="shadowOffsetInner1" in2="SourceAlpha" operator="arithmetic" k2="-1" k3="1" result="shadowInnerInner1"/><feColorMatrix values="0 0 0 0 1 0 0 0 0 1 0 0 0 0 1 0 0 0 0.5 0" in="shadowInnerInner1"/></filter><path d="m6.613 0-2.41 32H0L3.95 0h2.663zm3.269 0 1.778 32H5.607l2.41-32h1.865zm4.167 0L18 32h-4.939L11.283 0h2.766z" id="a"/><path id="c" d="M17.91 16.012h18L38 32H20z"/><path id="e" d="M15.82.022h18l1.83 13.99h-18z"/><linearGradient x1="40.793%" y1="31.141%" x2="100%" y2="68.859%" id="g"><stop stop-color="#73BBFF" offset="0%"/><stop stop-color="#4385FF" offset="100%"/></linearGradient></defs><g fill="none" fill-rule="evenodd"><g transform="translate(5 8)"><use fill-opacity=".6" fill="#D4E3FF" xlink:href="#a"/><use fill="#000" filter="url(#b)" xlink:href="#a"/></g><g transform="translate(5 8)"><use fill-opacity=".201" fill="#E4EEFF" xlink:href="#c"/><use fill="#000" filter="url(#d)" xlink:href="#c"/></g><g transform="translate(5 8)"><use fill-opacity=".201" fill="#E4EEFF" xlink:href="#e"/><use fill="#000" filter="url(#f)" xlink:href="#e"/></g><path fill="url(#g)" d="m31.196 3.022 1.044 7.99H20.274l-1.044-7.99z" transform="translate(5 8)"/></g></svg>