<svg width="48" height="48" xmlns="http://www.w3.org/2000/svg" xmlns:xlink="http://www.w3.org/1999/xlink"><defs><path d="M24.4 6v4H26v1.4h-1.6v25.2H26V38h-1.6v4H23v-4H4V10h19V6h1.4zM32 36.6V38h-4v-1.4h4zm6 0V38h-4v-1.4h4zm6.4-2.6v4H40v-1.4h3V34h1.4zm0-6v4H43v-4h1.4zM22 20l-5 4 5 4v-8zm22.4 2v4H43v-4h1.4zm0-6v4H43v-4h1.4zm0-6v4H43v-2.6h-3V10h4.4zM32 10v1.4h-4V10h4zm6 0v1.4h-4V10h4z" id="a"/><path id="c" d="M0 0h15v20H0z"/><linearGradient x1="40.793%" y1="0%" x2="100%" y2="100%" id="d"><stop stop-color="#73BBFF" offset="0%"/><stop stop-color="#4385FF" offset="100%"/></linearGradient><filter x="-2.5%" y="-2.8%" width="105%" height="105.6%" filterUnits="objectBoundingBox" id="b"><feGaussianBlur stdDeviation="1" in="SourceAlpha" result="shadowBlurInner1"/><feOffset in="shadowBlurInner1" result="shadowOffsetInner1"/><feComposite in="shadowOffsetInner1" in2="SourceAlpha" operator="arithmetic" k2="-1" k3="1" result="shadowInnerInner1"/><feColorMatrix values="0 0 0 0 1 0 0 0 0 1 0 0 0 0 1 0 0 0 1 0" in="shadowInnerInner1"/></filter></defs><g fill="none" fill-rule="evenodd"><use fill-opacity=".6" fill="#D4E3FF" xlink:href="#a"/><use fill="#000" filter="url(#b)" xlink:href="#a"/><g transform="translate(26.117 14)"><mask id="e" fill="#fff"><use xlink:href="#c"/></mask><path d="m-6.073 14.422 3.735 7.004c-.33-.59-.85-1.52-1.557-2.791-2.33-.402-4.133-.107-5.408.886-1.276.992-2.14 2.485-2.592 4.479H-13v-5.71l6.927-3.868zM14.999 9.19V24H.706l-2.896-5.43a136.273 136.273 0 0 1 1.623 3.01l.082.161.058.12c3.458-.418 4.85-.609 6.646-1.49 1.62-.795 2.317-1.942 3.21-2.19 1.088-.303 2.562-.463 3.37-1.038 1.575-1.122 1.647-1.86 1.446-4.083-.201-2.223.201-3.52.756-3.87H15zM-6.926 21.75c1.626-.4 3.031.571 4.97.353l-.021.001L-.965 24h-7.917l.043-.212c.256-1.107.893-1.786 1.913-2.038zM15 2.66l-.001 5.341-.16.094c-.358.212-.61.363-.754.452l-.056.034c-1.608.998-1.213 2.712-2.786 2.907-1.046.13-2.308-.33-3.122-1.485-.543-.77-.76-1.812-.651-3.126l-1.252.696.036.356c.214 1.872.836 3.301 1.867 4.29 1.643 1.573.704 3.05 0 4.122-.287.436-1.195 1.762-3.616 2.12-2.231.33-4.475.344-6.733.041h.001l-2.559-4.797L15 2.66zM.95-4l5.268 9.876L-13 16.602V-4H.95zM15-4V.974L7.505 5.157 2.62-4H15z" fill="url(#d)" mask="url(#e)"/></g></g></svg>