<svg width="48" height="48" xmlns="http://www.w3.org/2000/svg" xmlns:xlink="http://www.w3.org/1999/xlink"><defs><filter x="-2.2%" y="-3.3%" width="104.3%" height="106.6%" filterUnits="objectBoundingBox" id="b"><feGaussianBlur stdDeviation=".5" in="SourceAlpha" result="shadowBlurInner1"/><feOffset in="shadowBlurInner1" result="shadowOffsetInner1"/><feComposite in="shadowOffsetInner1" in2="SourceAlpha" operator="arithmetic" k2="-1" k3="1" result="shadowInnerInner1"/><feColorMatrix values="0 0 0 0 1 0 0 0 0 1 0 0 0 0 1 0 0 0 0.5 0" in="shadowInnerInner1"/></filter><filter x="-2.5%" y="-3.2%" width="105.1%" height="106.4%" filterUnits="objectBoundingBox" id="d"><feGaussianBlur stdDeviation="1" in="SourceAlpha" result="shadowBlurInner1"/><feOffset in="shadowBlurInner1" result="shadowOffsetInner1"/><feComposite in="shadowOffsetInner1" in2="SourceAlpha" operator="arithmetic" k2="-1" k3="1" result="shadowInnerInner1"/><feColorMatrix values="0 0 0 0 1 0 0 0 0 1 0 0 0 0 1 0 0 0 1 0" in="shadowInnerInner1"/></filter><path d="M39.279 12.146V27.4h-21.2l-1.997-15.254h23.197z" id="a"/><path d="m5.64 0-.001 3.48h5.706V0h2v3.579l3.33 25.42L39.279 29v2.48H0L3.639 3.695V0h2zm2.957 15.594a.992.992 0 0 0-.992.992V28.89H9.59V16.586a.992.992 0 0 0-.992-.992z" id="c"/><linearGradient x1="40.793%" y1="30.426%" x2="100%" y2="69.574%" id="e"><stop stop-color="#73BBFF" offset="0%"/><stop stop-color="#4385FF" offset="100%"/></linearGradient></defs><g fill="none" fill-rule="evenodd"><g transform="translate(4.36 8.26)"><use fill-opacity=".201" fill="#E4EEFF" xlink:href="#a"/><use fill="#000" filter="url(#b)" xlink:href="#a"/></g><g transform="translate(4.36 8.26)"><use fill-opacity=".6" fill="#D4E3FF" xlink:href="#c"/><use fill="#000" filter="url(#d)" xlink:href="#c"/></g><path d="m28.5 19.82 3.758 3.215 2.788-2.77.987.992-3.703 3.682-3.784-3.238-3.417 3.23-4.202-3.641.917-1.058 3.245 2.811L28.5 19.82zm0-4.333 3.758 3.215 2.788-2.77.987.993-3.703 3.68-3.784-3.236-3.417 3.229-4.202-3.64.917-1.059 3.244 2.811 3.412-3.223z" fill="url(#e)" transform="translate(4.36 8.26)"/></g></svg>