<svg width="48" height="48" xmlns="http://www.w3.org/2000/svg" xmlns:xlink="http://www.w3.org/1999/xlink"><defs><filter x="-3.6%" y="-4.6%" width="107.3%" height="109.1%" filterUnits="objectBoundingBox" id="b"><feGaussianBlur stdDeviation=".5" in="SourceAlpha" result="shadowBlurInner1"/><feOffset in="shadowBlurInner1" result="shadowOffsetInner1"/><feComposite in="shadowOffsetInner1" in2="SourceAlpha" operator="arithmetic" k2="-1" k3="1" result="shadowInnerInner1"/><feColorMatrix values="0 0 0 0 1 0 0 0 0 1 0 0 0 0 1 0 0 0 0.5 0" in="shadowInnerInner1"/></filter><filter x="-2.2%" y="-2.1%" width="104.4%" height="104.1%" filterUnits="objectBoundingBox" id="d"><feGaussianBlur stdDeviation=".5" in="SourceAlpha" result="shadowBlurInner1"/><feOffset in="shadowBlurInner1" result="shadowOffsetInner1"/><feComposite in="shadowOffsetInner1" in2="SourceAlpha" operator="arithmetic" k2="-1" k3="1" result="shadowInnerInner1"/><feColorMatrix values="0 0 0 0 1 0 0 0 0 1 0 0 0 0 1 0 0 0 0.5 0" in="shadowInnerInner1"/></filter><filter x="-4.6%" y="-4.2%" width="109.1%" height="108.5%" filterUnits="objectBoundingBox" id="f"><feGaussianBlur stdDeviation="1" in="SourceAlpha" result="shadowBlurInner1"/><feOffset in="shadowBlurInner1" result="shadowOffsetInner1"/><feComposite in="shadowOffsetInner1" in2="SourceAlpha" operator="arithmetic" k2="-1" k3="1" result="shadowInnerInner1"/><feColorMatrix values="0 0 0 0 1 0 0 0 0 1 0 0 0 0 1 0 0 0 1 0" in="shadowInnerInner1"/></filter><filter x="-7.1%" y="-9.6%" width="114.1%" height="119.1%" filterUnits="objectBoundingBox" id="h"><feGaussianBlur stdDeviation="1" in="SourceAlpha" result="shadowBlurInner1"/><feOffset in="shadowBlurInner1" result="shadowOffsetInner1"/><feComposite in="shadowOffsetInner1" in2="SourceAlpha" operator="arithmetic" k2="-1" k3="1" result="shadowInnerInner1"/><feColorMatrix values="0 0 0 0 1 0 0 0 0 1 0 0 0 0 1 0 0 0 1 0" in="shadowInnerInner1"/></filter><path id="a" d="M7.917 21.054 13.754 32H0v-6.527z"/><path id="c" d="M32 7.613V32H15.663L9.388 20.234z"/><path id="e" d="m15.943 0 6.02 11.287L0 23.545V0z"/><path id="g" d="M32 0v5.685l-8.566 4.78L17.852 0z"/><linearGradient x1="40.793%" y1="29.732%" x2="100%" y2="70.268%" id="i"><stop stop-color="#73BBFF" offset="0%"/><stop stop-color="#4385FF" offset="100%"/></linearGradient></defs><g fill="none" fill-rule="evenodd"><g transform="translate(8 8)"><use fill-opacity=".201" fill="#E4EEFF" xlink:href="#a"/><use fill="#000" filter="url(#b)" xlink:href="#a"/></g><g transform="translate(8 8)"><use fill-opacity=".201" fill="#E4EEFF" xlink:href="#c"/><use fill="#000" filter="url(#d)" xlink:href="#c"/></g><g transform="translate(8 8)"><use fill-opacity=".6" fill="#D4E3FF" xlink:href="#e"/><use fill="#000" filter="url(#f)" xlink:href="#e"/></g><g transform="translate(8 8)"><use fill-opacity=".6" fill="#D4E3FF" xlink:href="#g"/><use fill="#000" filter="url(#h)" xlink:href="#g"/></g><path d="M4.225 26.881c1.457-1.134 3.54-1.478 6.247-1.03l2.13 3.99c-2.215.25-3.802-.87-5.66-.412-1.239.306-1.984 1.163-2.236 2.571H1.263c.517-2.278 1.504-3.985 2.962-5.119zm19.169-14.45c-.124 1.502.124 2.693.744 3.573.93 1.32 2.372 1.845 3.569 1.697 1.797-.223 1.345-2.182 3.183-3.323.168-.104.538-.325 1.11-.664v1.36c-.634.4-1.094 1.883-.864 4.424.23 2.54.147 3.383-1.652 4.665-.924.658-2.608.84-3.853 1.186-1.02.284-1.815 1.595-3.667 2.504-2.053 1.007-3.66 1.212-7.613 1.69l-2.04-3.826c2.58.346 5.145.33 7.694-.047 2.768-.41 3.806-1.925 4.133-2.423.805-1.225 1.878-2.913 0-4.712-1.251-1.2-1.976-2.97-2.174-5.309z" fill="url(#i)" transform="translate(8 8)"/></g></svg>