<svg width="48" height="48" xmlns="http://www.w3.org/2000/svg" xmlns:xlink="http://www.w3.org/1999/xlink"><defs><filter x="-2.8%" y="-3%" width="105.6%" height="106.1%" filterUnits="objectBoundingBox" id="b"><feGaussianBlur stdDeviation="1" in="SourceAlpha" result="shadowBlurInner1"/><feOffset in="shadowBlurInner1" result="shadowOffsetInner1"/><feComposite in="shadowOffsetInner1" in2="SourceAlpha" operator="arithmetic" k2="-1" k3="1" result="shadowInnerInner1"/><feColorMatrix values="0 0 0 0 1 0 0 0 0 1 0 0 0 0 1 0 0 0 1 0" in="shadowInnerInner1"/></filter><filter x="-2%" y="-3.3%" width="104%" height="106.6%" filterUnits="objectBoundingBox" id="d"><feGaussianBlur stdDeviation=".5" in="SourceAlpha" result="shadowBlurInner1"/><feOffset in="shadowBlurInner1" result="shadowOffsetInner1"/><feComposite in="shadowOffsetInner1" in2="SourceAlpha" operator="arithmetic" k2="-1" k3="1" result="shadowInnerInner1"/><feColorMatrix values="0 0 0 0 1 0 0 0 0 1 0 0 0 0 1 0 0 0 0.5 0" in="shadowInnerInner1"/></filter><filter x="-4.2%" y="-8%" width="108.4%" height="116.1%" filterUnits="objectBoundingBox" id="g"><feGaussianBlur stdDeviation="1" in="SourceAlpha" result="shadowBlurInner1"/><feOffset in="shadowBlurInner1" result="shadowOffsetInner1"/><feComposite in="shadowOffsetInner1" in2="SourceAlpha" operator="arithmetic" k2="-1" k3="1" result="shadowInnerInner1"/><feColorMatrix values="0 0 0 0 1 0 0 0 0 1 0 0 0 0 1 0 0 0 1 0" in="shadowInnerInner1"/></filter><path d="M36 15.926V33h-4V17.849l4-1.923zM0 15.87l4 1.817V33H0V15.87zM20.55 0l14.865 14.432-3.841 1.846L18.928 4h-1.855L4.535 16.172.623 14.395 15.451 0h5.1z" id="a"/><path id="c" d="m5.386 18.317 2.222 1.01h21.321l1.685-.811v14.859H5.388z"/><path id="f" d="M18 5.278 29.949 17.06l-1.385.666H7.956l-1.767-.802z"/><linearGradient x1="40.793%" y1="22.396%" x2="100%" y2="77.604%" id="e"><stop stop-color="#73BBFF" offset="0%"/><stop stop-color="#4385FF" offset="100%"/></linearGradient></defs><g fill="none" fill-rule="evenodd"><g transform="translate(6 7)"><use fill-opacity=".6" fill="#D4E3FF" xlink:href="#a"/><use fill="#000" filter="url(#b)" xlink:href="#a"/></g><g transform="translate(6 7)"><use fill-opacity=".201" fill="#E4EEFF" xlink:href="#c"/><use fill="#000" filter="url(#d)" xlink:href="#c"/></g><path d="M26.074 23.857c-.888.136-1.666.664-2.333 1.583-2.117 2.918-4.291 2.908-5.168 2.918 0 0-.378 2.568.632 5.017h-1.998c-.328-2.485-.361-4.256-.1-5.313.53-1.765 1.144-2.997 1.84-3.697a4.39 4.39 0 0 1 1.108-.695c1.645-.692 2.827-.844 6.02.187zM10.472 21.78c.494.002.962.014 1.404.035l.644.038c2.29.165 3.795.607 4.515 1.328.324.324.46.74.53 1.166-.312.684-.521 1.8-.626 3.345-1.171-.162-1.997-.499-2.956-1.458a13.377 13.377 0 0 1-.356-.37l-.38-.425a37.043 37.043 0 0 1-2.001-2.565l-.51-.716c-.088-.124-.176-.25-.264-.378z" fill="url(#e)" transform="translate(6 7)"/><g transform="translate(6 7)"><use fill-opacity=".6" fill="#D4E3FF" xlink:href="#f"/><use fill="#000" filter="url(#g)" xlink:href="#f"/></g></g></svg>